<?xml version="1.0" encoding="UTF-8" standalone="no"?>
<!DOCTYPE svg PUBLIC "-//W3C//DTD SVG 1.1//EN" "http://www.w3.org/Graphics/SVG/1.1/DTD/svg11.dtd">
<svg xmlns="http://www.w3.org/2000/svg" version="1.1" viewBox="0.00 0.00 1800.00 276.00">
<path fill="#1b1e1b" d="
  M 142.76 118.73
  A 0.41 0.41 0.0 0 0 143.45 119.02
  C 152.63 110.13 163.24 99.10 176.98 97.83
  C 190.11 96.61 199.88 98.83 201.67 113.97
  C 202.14 117.91 200.24 123.10 199.16 127.18
  C 198.51 129.63 194.66 131.19 193.73 128.03
  C 192.07 122.43 193.53 112.53 186.36 109.85
  Q 185.89 109.68 185.40 109.82
  C 171.79 114.02 159.16 126.41 151.93 137.94
  Q 140.64 155.96 144.32 177.45
  C 145.33 183.31 148.69 185.46 154.48 186.57
  Q 170.98 189.75 188.05 184.30
  C 203.07 179.50 212.54 170.26 220.49 156.96
  C 222.03 154.39 224.05 152.65 226.44 155.64
  Q 226.73 156.01 226.75 156.49
  C 227.04 169.43 219.36 182.70 212.99 194.43
  Q 212.73 194.91 212.21 195.05
  Q 210.63 195.47 208.00 195.48
  Q 151.97 195.62 95.61 195.45
  Q 93.52 195.45 94.14 193.45
  Q 94.21 193.24 95.60 192.64
  Q 102.27 189.78 107.75 184.99
  C 111.97 181.30 112.73 177.43 112.74 171.52
  Q 112.78 141.51 112.82 111.50
  C 112.84 96.28 117.89 82.96 125.24 69.78
  A 0.68 0.68 0.0 0 0 124.66 68.77
  C 108.01 68.59 90.42 66.72 81.29 83.39
  C 74.86 95.14 75.20 118.77 80.67 131.21
  C 85.92 143.15 96.25 150.28 105.82 156.97
  Q 108.50 158.84 107.78 160.66
  Q 106.98 162.69 104.85 162.24
  C 95.15 160.21 83.01 159.15 75.44 152.65
  C 67.88 146.15 62.68 131.75 61.51 122.51
  C 58.53 99.06 63.98 72.70 89.61 64.72
  C 102.56 60.69 116.27 59.72 129.72 58.58
  C 131.47 58.44 133.29 59.32 135.20 57.72
  Q 138.50 54.94 142.59 56.08
  A 0.88 0.88 0.0 0 1 143.15 56.53
  L 144.13 58.51
  Q 144.36 58.97 144.87 58.96
  Q 172.41 58.53 199.93 59.08
  Q 204.30 59.17 209.73 58.70
  C 211.56 58.54 212.53 59.24 212.91 61.10
  C 215.43 73.29 224.72 82.37 226.94 94.29
  Q 227.03 94.77 226.78 95.18
  Q 224.28 99.49 220.30 96.19
  Q 217.16 93.58 208.26 85.00
  C 195.81 73.00 186.17 67.84 169.07 67.77
  Q 156.09 67.71 143.48 67.77
  A 0.75 0.75 0.0 0 0 142.73 68.52
  L 142.76 118.73
  Z"
/>
<path fill="#1b1e1b" d="
  M 1163.69 72.69
  C 1172.93 61.77 1187.58 61.82 1200.69 61.76
  Q 1226.38 61.64 1252.06 62.27
  C 1256.06 62.37 1260.47 60.16 1262.83 65.31
  Q 1269.30 79.47 1276.97 93.04
  Q 1279.58 97.65 1278.48 104.51
  A 1.05 1.05 0.0 0 1 1277.98 105.24
  Q 1275.94 106.42 1273.73 104.52
  C 1265.61 97.52 1256.82 88.96 1249.02 83.68
  Q 1223.29 66.27 1191.09 70.52
  C 1181.52 71.79 1172.72 76.90 1170.71 87.05
  C 1167.83 101.58 1176.09 111.37 1189.63 115.46
  Q 1207.12 120.74 1225.25 123.00
  C 1240.36 124.87 1257.14 129.05 1270.48 135.51
  C 1281.25 140.73 1286.77 149.72 1288.91 161.73
  C 1293.18 185.76 1285.92 219.40 1259.00 227.03
  C 1243.36 231.46 1227.88 231.70 1211.00 231.48
  C 1183.11 231.11 1144.81 223.15 1138.20 190.56
  Q 1135.56 177.58 1137.38 163.23
  C 1138.30 155.90 1143.62 141.25 1153.58 144.95
  Q 1154.03 145.11 1153.98 145.59
  C 1153.68 148.55 1151.41 150.21 1150.50 153.85
  C 1146.41 170.26 1152.47 185.19 1165.49 195.49
  C 1184.41 210.46 1206.65 214.89 1230.22 215.72
  Q 1234.11 215.85 1239.24 215.21
  C 1250.47 213.80 1264.09 213.60 1269.49 200.74
  C 1275.88 185.54 1272.82 164.61 1256.28 157.15
  Q 1237.61 148.74 1217.34 146.32
  Q 1205.75 144.94 1205.67 144.93
  C 1190.05 142.61 1170.86 141.03 1161.81 125.69
  C 1152.30 109.57 1151.18 87.46 1163.69 72.69
  Z"
/>
<path fill="#1b1e1b" d="
  M 1532.45 67.20
  C 1536.05 61.54 1546.11 61.02 1551.82 62.38
  C 1561.28 64.62 1563.10 75.92 1559.21 83.45
  C 1555.33 90.98 1547.88 96.85 1539.29 96.82
  C 1529.38 96.78 1528.88 72.81 1532.45 67.20
  Z"
/>
<path fill="#1b1e1b" d="
  M 354.55 101.19
  L 368.64 100.69
  A 1.77 1.76 10.6 0 1 370.33 103.15
  C 367.32 110.24 361.39 111.25 354.35 111.83
  A 0.66 0.65 87.6 0 0 353.75 112.49
  L 353.75 169.00
  Q 353.75 172.60 356.71 170.55
  C 361.12 167.49 367.18 162.26 372.12 161.28
  A 1.57 1.57 0.0 0 1 373.99 162.67
  C 374.50 168.08 361.95 178.85 357.77 181.78
  C 352.20 185.68 342.62 188.57 336.00 185.80
  C 331.56 183.94 329.88 176.37 329.83 172.19
  Q 329.53 143.08 330.08 113.82
  A 1.29 1.29 0.0 0 0 328.65 112.51
  C 326.52 112.74 319.80 113.51 318.27 111.65
  Q 317.93 111.24 318.09 110.73
  Q 319.41 106.33 322.45 103.94
  C 329.57 98.33 335.83 93.50 340.45 85.94
  C 342.57 82.48 346.98 71.07 350.50 70.10
  A 2.57 2.56 -7.7 0 1 353.75 72.57
  L 353.75 100.42
  A 0.78 0.77 -0.7 0 0 354.55 101.19
  Z"
/>
<path fill="#1b1e1b" d="
  M 1321.75 112.49
  L 1321.75 170.26
  A 0.90 0.90 0.0 0 0 1323.06 171.06
  C 1328.61 168.27 1334.61 162.30 1340.30 161.19
  A 1.29 1.28 -11.9 0 1 1341.81 162.17
  C 1343.08 167.94 1329.85 178.88 1325.57 181.81
  Q 1315.06 189.01 1303.41 185.76
  A 1.77 1.72 -11.1 0 1 1302.55 185.20
  Q 1297.78 179.48 1297.78 172.56
  Q 1297.78 144.35 1298.18 113.88
  A 1.42 1.42 0.0 0 0 1296.62 112.45
  C 1293.84 112.73 1288.50 113.56 1286.40 111.33
  A 1.06 1.06 0.0 0 1 1286.17 110.23
  Q 1287.76 105.85 1291.09 103.36
  C 1298.06 98.13 1304.27 92.96 1308.71 85.49
  Q 1311.96 80.03 1315.00 73.28
  C 1316.20 70.62 1321.60 67.67 1321.65 73.08
  Q 1321.77 86.93 1321.75 100.39
  A 0.92 0.92 0.0 0 0 1322.69 101.31
  C 1326.66 101.23 1335.71 99.81 1338.38 101.66
  A 1.00 0.99 33.6 0 1 1338.66 103.02
  C 1334.27 109.92 1330.28 111.26 1322.32 111.88
  A 0.61 0.61 0.0 0 0 1321.75 112.49
  Z"
/>
<path fill="#1b1e1b" d="
  M 580.67 109.07
  A 1.40 1.39 -23.0 0 0 582.99 110.00
  C 612.91 83.74 633.24 113.89 632.95 141.99
  C 632.82 154.47 628.43 163.26 619.77 172.29
  C 610.41 182.06 595.96 189.08 582.17 185.93
  Q 581.62 185.81 581.63 186.37
  Q 581.83 204.97 581.73 223.49
  C 581.70 230.56 593.50 236.66 595.78 244.04
  A 1.85 1.84 -1.3 0 1 593.55 246.37
  C 588.01 244.94 583.10 241.75 577.03 239.47
  Q 572.08 237.61 567.92 240.08
  C 561.67 243.77 553.35 250.47 546.11 251.21
  Q 545.59 251.26 545.24 250.87
  Q 542.96 248.28 545.52 245.49
  C 550.08 240.49 557.85 236.25 557.78 227.56
  Q 557.64 209.00 557.80 190.44
  C 557.99 168.50 557.65 146.55 558.23 124.72
  A 1.79 1.79 0.0 0 0 556.02 122.93
  C 551.62 124.00 547.84 125.71 543.11 125.78
  Q 542.66 125.79 542.73 125.34
  C 543.96 117.73 556.33 107.74 562.55 103.78
  C 565.96 101.62 576.80 98.52 579.74 102.10
  Q 580.13 102.58 580.18 103.19
  L 580.67 109.07
  Z
  M 582.73 131.22
  C 580.98 134.67 581.64 142.14 581.56 146.20
  C 581.33 157.78 582.64 166.44 594.80 169.92
  C 600.12 171.44 604.01 165.77 605.22 161.27
  Q 610.34 142.23 602.75 125.04
  C 598.87 116.27 585.24 126.28 582.73 131.22
  Z"
/>
<path fill="#1b1e1b" d="
  M 1522.74 117.34
  C 1525.00 110.96 1530.48 107.09 1535.97 103.47
  C 1541.11 100.07 1551.48 98.35 1556.22 103.32
  C 1561.23 108.56 1560.88 112.82 1560.84 120.84
  Q 1560.73 146.56 1560.69 172.20
  A 0.26 0.25 80.5 0 0 1561.03 172.45
  C 1563.96 171.44 1571.31 167.82 1574.10 168.57
  A 1.64 1.64 0.0 0 1 1575.04 171.08
  C 1571.76 175.91 1567.64 182.16 1562.36 184.55
  C 1556.50 187.20 1544.18 188.76 1540.37 182.92
  Q 1537.06 177.84 1536.94 171.19
  Q 1536.46 143.49 1537.11 116.34
  A 1.26 1.26 0.0 0 0 1535.22 115.22
  C 1532.17 116.98 1527.96 119.86 1524.38 119.75
  A 1.81 1.81 0.0 0 1 1522.74 117.34
  Z"
/>
<path fill="#1b1e1b" d="
  M 260.23 121.73
  Q 262.32 120.17 263.24 118.97
  Q 270.41 109.48 277.10 104.82
  C 287.25 97.75 304.40 98.48 304.65 115.25
  Q 305.09 143.78 304.71 172.16
  A 0.37 0.36 78.0 0 0 305.23 172.50
  C 308.31 171.06 315.24 165.79 317.97 169.03
  Q 318.25 169.37 318.16 169.81
  Q 317.86 171.24 317.36 172.10
  C 311.14 182.71 301.03 189.44 288.48 186.01
  C 282.26 184.32 280.78 174.82 280.77 169.36
  Q 280.74 151.18 280.74 133.00
  Q 280.74 127.60 279.49 123.34
  A 0.75 0.75 0.0 0 0 278.81 122.80
  C 271.79 122.46 263.60 136.52 261.14 142.26
  Q 259.97 145.00 259.89 148.44
  Q 259.55 163.49 259.76 170.26
  C 260.14 182.67 248.19 186.80 238.04 186.76
  A 1.78 1.77 85.2 0 1 236.29 185.28
  C 235.57 181.04 236.03 176.34 236.01 173.04
  Q 235.89 147.00 235.68 120.72
  A 0.97 0.96 74.8 0 0 234.24 119.89
  C 230.62 121.97 226.46 124.29 222.12 123.40
  Q 220.40 123.05 221.50 121.69
  Q 229.58 111.70 238.05 104.78
  Q 243.23 100.54 249.40 100.97
  C 252.10 101.16 254.88 100.25 255.95 103.71
  Q 258.25 111.09 258.46 114.31
  Q 258.75 119.00 259.49 121.48
  Q 259.69 122.13 260.23 121.73
  Z"
/>
<path fill="#1b1e1b" d="
  M 413.05 121.73
  Q 412.84 123.71 414.20 122.26
  C 424.43 111.30 433.48 96.59 452.08 101.72
  C 458.46 103.48 459.46 113.11 458.57 118.38
  Q 457.91 122.33 454.61 127.03
  C 450.99 132.18 439.64 147.38 433.03 147.28
  A 1.70 1.70 0.0 0 1 431.40 145.23
  Q 432.71 139.08 433.88 133.42
  C 434.55 130.21 433.45 127.74 432.47 124.87
  A 1.83 1.83 0.0 0 0 429.42 124.19
  C 425.66 128.08 413.77 139.68 413.77 144.60
  Q 413.74 160.24 413.75 175.25
  A 2.64 2.62 68.9 0 1 412.90 177.19
  C 406.61 183.00 400.17 186.02 391.64 187.07
  A 1.39 1.39 0.0 0 1 390.08 185.69
  L 389.90 121.20
  A 1.12 1.12 0.0 0 0 388.17 120.26
  C 384.57 122.59 382.20 123.80 378.18 125.25
  Q 377.69 125.42 377.23 125.16
  C 375.67 124.26 375.65 122.47 376.51 120.98
  C 382.76 110.16 396.14 97.54 409.90 101.72
  A 2.78 2.78 0.0 0 1 411.79 103.71
  Q 414.01 112.56 413.05 121.73
  Z"
/>
<path fill="#1b1e1b" d="
  M 717.63 116.78
  Q 717.75 117.33 718.04 116.85
  C 721.77 110.70 731.23 101.87 738.46 100.90
  C 747.80 99.64 747.70 102.18 749.59 109.85
  C 750.44 113.27 750.36 117.66 751.53 121.56
  Q 751.71 122.16 752.20 121.77
  Q 754.75 119.73 755.82 118.32
  Q 763.27 108.51 770.06 104.03
  C 774.68 100.99 784.51 99.20 789.77 102.09
  C 794.92 104.91 796.72 111.53 796.75 117.03
  Q 796.87 144.42 796.61 171.82
  Q 796.61 172.47 797.22 172.26
  C 800.81 171.06 806.54 166.15 809.90 168.58
  Q 810.34 168.90 810.30 169.43
  Q 810.19 170.96 809.07 172.57
  C 803.67 180.37 798.33 186.03 788.70 186.71
  C 775.93 187.60 772.80 180.37 772.77 169.09
  Q 772.73 150.92 772.73 132.75
  Q 772.73 128.06 771.56 123.53
  A 0.97 0.95 1.8 0 0 770.91 122.85
  C 764.50 120.95 752.22 140.92 752.03 146.25
  Q 751.58 158.63 751.76 171.01
  C 751.94 183.02 739.17 186.85 729.47 186.78
  A 0.93 0.92 78.5 0 1 728.64 186.23
  Q 727.80 184.33 727.79 181.81
  Q 727.71 151.44 727.75 121.04
  Q 727.76 119.30 726.08 119.76
  C 723.52 120.46 721.29 122.83 718.64 123.88
  A 1.14 1.12 43.7 0 1 717.83 123.89
  Q 715.61 123.01 714.94 120.73
  A 0.46 0.46 0.0 0 0 714.14 120.56
  C 713.21 121.65 712.11 122.04 711.29 122.87
  Q 692.02 142.28 672.54 161.29
  A 1.65 1.64 -39.8 0 0 672.34 163.41
  C 686.74 184.08 709.07 156.40 714.59 160.88
  C 719.30 164.69 701.42 179.08 698.65 180.85
  C 689.05 186.95 678.17 187.03 666.27 186.80
  Q 654.49 186.57 647.91 178.12
  C 643.08 171.91 641.78 165.06 641.77 156.53
  C 641.77 150.92 641.38 144.60 642.12 139.48
  C 645.28 117.56 659.59 102.66 682.07 101.11
  C 688.99 100.63 698.49 100.19 704.77 103.65
  C 709.81 106.43 716.28 110.76 717.63 116.78
  Z
  M 670.92 121.24
  Q 663.03 132.78 666.26 147.55
  Q 666.84 150.20 669.15 148.78
  C 673.76 145.94 679.80 137.16 683.10 132.58
  C 686.67 127.61 684.35 122.17 680.90 117.97
  C 676.85 113.04 673.35 117.69 670.92 121.24
  Z"
/>
<path fill="#1b1e1b" d="
  M 866.70 176.43
  A 1.34 1.33 -28.7 0 0 864.50 175.79
  C 856.83 182.85 852.57 187.28 840.75 186.66
  Q 835.56 186.38 832.92 184.61
  C 821.61 177.00 821.73 168.43 821.73 154.27
  Q 821.73 134.04 822.35 113.84
  Q 822.37 113.16 821.78 113.48
  Q 816.55 116.28 810.63 117.17
  A 1.70 1.69 7.0 0 1 808.81 114.85
  C 810.99 109.49 815.29 105.86 820.60 102.99
  C 825.48 100.34 829.56 101.00 835.24 101.06
  C 844.49 101.16 845.73 109.78 845.73 117.06
  Q 845.74 125.11 845.49 151.19
  C 845.44 156.34 850.80 168.14 858.03 163.01
  C 865.61 157.63 866.72 152.50 866.75 142.87
  Q 866.79 130.01 866.71 117.15
  C 866.67 110.52 870.31 105.60 876.13 102.84
  C 879.87 101.07 884.69 101.02 889.09 100.67
  A 1.52 1.51 -2.1 0 1 890.72 102.18
  Q 890.76 134.40 890.91 167.00
  Q 890.92 169.14 891.04 169.97
  Q 891.41 172.71 893.69 171.13
  C 897.67 168.36 905.85 160.94 910.13 161.09
  Q 910.58 161.11 910.77 161.51
  Q 911.72 163.57 910.91 164.92
  Q 905.79 173.38 897.18 180.86
  C 891.16 186.08 886.72 186.82 878.97 186.78
  C 871.14 186.73 868.57 183.62 866.70 176.43
  Z"
/>
<path fill="#1b1e1b" d="
  M 1033.01 122.27
  A 0.49 0.49 0.0 0 0 1033.87 122.65
  C 1043.74 111.47 1054.06 96.35 1072.03 101.79
  C 1078.27 103.67 1079.65 112.92 1078.74 118.12
  Q 1078.01 122.25 1074.15 127.56
  C 1071.89 130.67 1056.63 151.08 1052.11 146.90
  Q 1051.22 146.08 1051.56 144.51
  Q 1052.79 138.77 1053.95 133.00
  C 1054.57 129.93 1053.42 127.84 1052.53 125.03
  A 1.80 1.80 0.0 0 0 1049.56 124.29
  C 1045.96 127.77 1033.79 139.59 1033.77 144.56
  Q 1033.72 160.03 1033.76 175.50
  C 1033.77 177.15 1031.28 178.52 1030.40 179.25
  Q 1022.22 185.97 1011.87 187.24
  A 1.62 1.60 -3.5 0 1 1010.06 185.65
  L 1009.96 121.19
  A 1.03 1.02 -14.6 0 0 1008.43 120.30
  C 1005.15 122.13 1002.06 124.15 998.41 125.25
  Q 997.90 125.40 997.49 125.07
  C 991.04 119.88 1009.41 106.55 1013.11 104.14
  Q 1020.25 99.49 1029.03 101.51
  C 1030.42 101.83 1031.37 102.18 1031.75 103.73
  Q 1034.05 113.01 1033.01 122.27
  Z"
/>
<path fill="#1b1e1b" d="
  M 1473.51 122.55
  Q 1475.20 121.80 1475.66 121.13
  C 1481.45 112.66 1492.61 100.62 1503.38 100.84
  C 1509.07 100.95 1513.77 100.47 1516.60 105.55
  Q 1519.91 111.52 1518.83 117.79
  C 1517.25 126.88 1505.15 139.11 1498.47 145.34
  C 1497.07 146.64 1490.80 149.60 1491.57 144.75
  C 1492.72 137.46 1496.07 131.31 1491.94 124.31
  A 0.94 0.94 0.0 0 0 1490.91 123.87
  C 1487.27 124.76 1478.93 135.76 1476.25 139.01
  C 1474.62 140.99 1473.76 142.81 1473.76 145.54
  Q 1473.75 160.71 1473.75 175.36
  Q 1473.75 176.25 1473.11 176.87
  Q 1464.40 185.40 1452.39 187.22
  A 1.85 1.84 85.1 0 1 1450.27 185.43
  C 1449.89 164.44 1449.12 142.71 1450.27 121.80
  A 1.49 1.48 -13.3 0 0 1448.05 120.43
  L 1438.62 125.81
  A 0.84 0.82 -44.4 0 1 1437.79 125.81
  Q 1435.69 124.62 1436.06 122.80
  C 1437.77 114.51 1451.98 102.84 1460.04 101.27
  C 1463.33 100.63 1471.18 100.03 1472.15 104.73
  Q 1473.92 113.36 1472.99 122.18
  Q 1472.93 122.81 1473.51 122.55
  Z"
/>
<path fill="#1b1e1b" d="
  M 483.34 108.77
  C 494.26 100.74 505.16 100.85 518.50 101.13
  C 527.34 101.32 534.22 106.61 540.32 112.42
  Q 543.05 115.01 540.41 117.65
  C 525.99 132.08 511.85 147.23 496.74 160.92
  A 1.98 1.98 0.0 0 0 496.39 163.41
  C 505.91 178.99 523.60 166.75 534.50 161.17
  Q 535.34 160.74 536.16 160.65
  Q 537.37 160.53 537.92 160.68
  A 2.09 2.08 23.0 0 1 539.15 163.72
  C 527.76 183.73 507.84 189.55 486.07 186.14
  C 472.46 184.01 465.84 171.68 465.77 158.77
  C 465.72 149.68 465.45 140.33 467.77 132.29
  C 470.50 122.81 475.37 114.64 483.34 108.77
  Z
  M 495.72 120.22
  Q 486.10 132.99 490.77 148.62
  A 1.27 1.27 0.0 0 0 492.73 149.29
  C 497.98 145.51 503.01 138.14 506.80 132.77
  Q 510.96 126.86 506.74 120.73
  C 502.55 114.64 500.31 114.13 495.72 120.22
  Z"
/>
<path fill="#1b1e1b" d="
  M 919.17 133.81
  C 924.17 114.45 937.90 102.56 957.98 101.11
  C 965.04 100.60 974.15 100.24 980.61 103.64
  C 983.68 105.27 996.52 113.03 992.71 116.97
  Q 971.01 139.41 948.75 161.13
  Q 947.52 162.33 948.52 163.73
  C 959.35 179.00 975.87 166.47 987.48 160.69
  Q 990.02 159.42 991.33 161.93
  Q 991.51 162.27 991.12 163.56
  Q 990.89 164.29 990.41 165.01
  C 981.75 177.99 970.32 185.94 954.97 186.67
  C 944.08 187.18 931.56 187.61 924.00 178.29
  Q 918.31 171.26 917.75 160.77
  C 917.33 152.71 917.13 141.68 919.17 133.81
  Z
  M 947.51 120.50
  Q 938.70 132.43 942.34 147.77
  Q 942.88 150.04 944.95 148.97
  C 949.49 146.63 956.44 136.12 959.42 131.70
  C 962.57 127.04 960.09 121.50 956.68 117.71
  C 952.86 113.47 949.96 117.19 947.51 120.50
  Z"
/>
<path fill="#1b1e1b" d="
  M 1352.82 142.45
  C 1354.25 121.27 1371.26 102.49 1392.82 101.07
  C 1409.30 99.97 1422.51 102.63 1430.05 118.70
  C 1434.72 128.65 1435.88 139.49 1434.24 150.09
  C 1431.38 168.59 1414.29 184.80 1395.56 186.58
  C 1379.48 188.12 1366.90 184.76 1358.42 170.46
  C 1353.57 162.29 1352.19 151.77 1352.82 142.45
  Z
  M 1384.67 116.49
  C 1381.30 119.39 1377.97 124.51 1377.33 129.07
  C 1375.55 141.55 1379.34 167.10 1393.34 173.01
  C 1398.45 175.17 1404.50 170.35 1407.15 166.54
  C 1414.38 156.15 1409.92 134.87 1404.81 124.41
  C 1401.19 117.02 1392.66 109.60 1384.67 116.49
  Z"
/>
<path fill="#1b1e1b" d="
  M 1626.93 155.17
  C 1624.71 157.40 1621.59 159.44 1620.06 162.21
  A 0.91 0.90 41.8 0 0 1620.12 163.18
  C 1631.13 178.37 1646.21 167.89 1659.03 160.75
  Q 1660.40 159.99 1662.70 160.52
  Q 1663.17 160.63 1663.22 161.12
  C 1663.40 162.85 1663.49 164.02 1662.43 165.51
  C 1649.25 184.13 1635.42 187.67 1613.20 186.53
  C 1601.60 185.93 1593.47 178.35 1590.69 167.56
  Q 1589.72 163.80 1589.75 155.87
  C 1589.77 150.10 1589.40 143.67 1590.29 138.43
  C 1595.17 109.47 1616.95 98.27 1644.27 101.30
  C 1652.55 102.22 1658.61 106.79 1664.34 112.64
  C 1666.57 114.91 1666.20 116.06 1664.06 118.18
  Q 1645.41 136.61 1626.93 155.17
  Z
  M 1619.52 120.50
  Q 1610.60 132.61 1614.60 148.44
  A 1.45 1.44 -23.3 0 0 1616.77 149.30
  C 1621.24 146.50 1633.50 130.89 1633.04 126.50
  Q 1632.59 122.06 1628.67 117.72
  C 1624.89 113.51 1621.93 117.22 1619.52 120.50
  Z"
/>
<path fill="#1b1e1b" d="
  M 1671.43 131.06
  C 1666.62 107.23 1682.82 101.27 1702.66 100.98
  C 1707.59 100.90 1713.50 101.98 1718.96 102.35
  C 1723.87 102.68 1728.88 101.33 1734.03 100.89
  A 0.85 0.85 0.0 0 1 1734.85 102.15
  Q 1729.42 112.13 1725.56 122.78
  A 2.13 2.13 0.0 0 1 1723.25 124.17
  Q 1721.62 123.93 1719.62 122.35
  C 1709.86 114.66 1699.95 109.46 1687.35 114.82
  Q 1685.40 115.65 1684.56 117.40
  A 0.98 0.97 -48.1 0 0 1684.61 118.35
  Q 1687.96 123.65 1693.66 126.35
  C 1704.68 131.54 1717.80 136.16 1726.68 144.04
  C 1735.92 152.24 1736.52 167.98 1729.73 177.70
  C 1721.85 188.99 1694.34 187.34 1682.69 185.89
  C 1673.35 184.73 1672.74 179.36 1671.61 171.53
  Q 1670.63 164.69 1670.76 157.74
  Q 1670.80 155.41 1672.39 154.39
  A 2.28 2.27 -40.9 0 1 1675.10 154.58
  Q 1676.99 156.21 1678.21 158.03
  C 1684.50 167.45 1690.34 174.98 1701.38 178.21
  C 1706.23 179.62 1715.44 178.28 1716.61 171.96
  C 1718.20 163.48 1708.44 158.93 1702.20 155.97
  C 1691.73 150.98 1673.90 143.28 1671.43 131.06
  Z"
/>
</svg>
